<?xml version="1.0" standalone="no"?>
<!DOCTYPE svg PUBLIC "-//W3C//DTD SVG 20010904//EN"
 "http://www.w3.org/TR/2001/REC-SVG-20010904/DTD/svg10.dtd">
<svg version="1.0" xmlns="http://www.w3.org/2000/svg"
 width="1280.000000pt" height="1176.000000pt" viewBox="0 0 1280.000000 1176.000000"
 preserveAspectRatio="xMidYMid meet">

<g transform="translate(0.000000,1176.000000) scale(0.100000,-0.100000)"
fill="#000000" stroke="none">
<path d="M1982 9029 c-167 -28 -290 -167 -300 -340 -4 -71 -1 -85 51 -235 46
-132 440 -1245 587 -1656 50 -140 82 -193 149 -246 66 -53 137 -76 231 -76 64
0 85 4 140 31 36 17 79 44 97 59 17 16 161 184 319 374 338 406 744 892 1048
1255 141 168 228 281 247 319 107 223 -33 480 -282 516 -82 12 -2216 11 -2287
-1z"/>
<path d="M6092 9029 c-65 -11 -105 -28 -157 -66 -22 -16 -222 -248 -445 -514
-222 -266 -495 -592 -605 -724 -193 -231 -392 -469 -1444 -1729 -340 -407
-491 -595 -509 -635 -22 -47 -26 -70 -26 -141 0 -83 2 -92 118 -415 65 -181
167 -469 228 -640 60 -170 121 -341 135 -380 13 -38 88 -248 164 -465 77 -217
151 -413 164 -436 90 -153 295 -215 465 -138 65 29 102 65 252 244 57 69 241
289 409 490 168 201 511 613 764 915 252 303 538 645 635 760 165 197 419 501
963 1152 125 150 242 284 260 297 67 51 126 70 217 71 92 0 144 -15 213 -62
38 -26 75 -70 911 -1071 263 -315 492 -583 510 -597 67 -51 125 -69 221 -70
78 0 98 4 150 28 65 30 124 81 160 138 13 20 103 261 200 535 98 275 188 528
201 563 48 127 48 245 0 339 -13 26 -75 108 -137 182 -188 225 -906 1084
-1199 1435 -152 182 -366 438 -476 570 -230 276 -268 313 -350 346 l-59 24
-940 2 c-517 0 -964 -3 -993 -8z"/>
<path d="M9611 9029 c-116 -20 -217 -98 -270 -209 -22 -47 -26 -68 -26 -150 0
-82 4 -103 26 -150 27 -57 760 -948 842 -1024 23 -21 65 -50 92 -65 45 -23 61
-26 155 -26 95 0 110 3 160 28 65 33 122 86 155 142 21 35 115 295 317 870 55
157 59 175 55 240 -8 142 -102 274 -232 326 l-60 24 -580 1 c-319 1 -604 -2
-634 -7z"/>
<path d="M7780 5491 c-40 -13 -103 -48 -136 -78 -54 -48 -489 -576 -508 -617
-30 -64 -42 -157 -28 -222 23 -111 -48 -21 1070 -1357 177 -212 338 -399 358
-416 141 -125 364 -113 499 26 21 21 45 54 55 73 10 19 79 208 154 419 130
368 136 387 136 462 0 139 -1 140 -382 596 -187 224 -459 550 -604 723 -145
173 -278 325 -297 338 -64 43 -132 62 -215 61 -42 0 -88 -4 -102 -8z"/>
</g>
</svg>
